#!OML:ASF E:\Style4\Style4.ASF
:FULLY-SPECIFIED
:DEGREES
3272
root 0.0875643 17.6131 -0.905448 1.19907 6.8782 6.64161
lowerback 11.4802 4.75778 -1.22184
upperback 8.79513 6.23457 -0.694776
thorax 2.75802 3.11468 -0.590478
lowerneck 6.72285 -6.11544 -5.0771
upperneck -1.46973 -8.37457 5.67001
head -1.14608 -4.26832 2.92042
rclavicle -3.29983e-014 2.38542e-014
rhumerus 15.4944 11.1564 -78.9739
rradius 121.154
rwrist 19.7418
rhand 14.58 -0.789873
rfingers 7.12502
rthumb 39.4562 -26.1777
lclavicle -3.29983e-014 2.38542e-014
lhumerus 24.3261 -16.1931 73.8749
lradius 121.707
lwrist -9.99138
lhand 9.73578 33.5716
lfingers 7.12502
lthumb 34.8757 60.1566
rfemur -16.96 -3.27507 11.3437
rtibia 40.3023
rfoot -21.8998 -14.7611
rtoes -10.4192
lfemur -14.7749 4.09317 -26.2555
ltibia 31.334
lfoot -17.1263 2.13607
ltoes -14.4412
3273
root 0.115309 17.6069 -0.938514 1.30973 6.0703 6.56515
lowerback 11.8386 4.64831 -1.22423
upperback 8.72927 6.07224 -0.591747
thorax 2.48261 3.02898 -0.503604
lowerneck 6.96359 -6.20214 -5.21241
upperneck -1.81858 -8.49919 5.76868
head -1.28466 -4.33456 3.00272
rclavicle 3.33958e-014 1.27222e-014
rhumerus 15.8507 11.1237 -78.9574
rradius 121.048
rwrist 19.7633
rhand 14.6709 -0.634567
rfingers 7.12502
rthumb 39.5418 -25.9972
lclavicle 3.33958e-014 1.27222e-014
lhumerus 24.2758 -15.9607 73.8209
lradius 121.646
lwrist -10.088
lhand 9.62947 33.7415
lfingers 7.12502
lthumb 34.7748 60.3499
rfemur -17.593 -2.82206 11.3308
rtibia 40.5579
rfoot -21.7211 -14.5467
rtoes -10.6803
lfemur -15.1919 4.58143 -26.2862
ltibia 31.6684
lfoot -17.2671 2.23892
ltoes -13.411
3274
root 0.143828 17.5987 -0.971587 1.46145 5.24609 6.43153
lowerback 12.2626 4.53342 -1.15444
upperback 8.58332 5.90717 -0.52906
thorax 2.09974 2.94628 -0.50525
lowerneck 7.18873 -6.29685 -5.23778
upperneck -2.08245 -8.62592 5.88254
head -1.39693 -4.40281 3.06775
rclavicle 4.49253e-014 -2.14687e-014
rhumerus 16.0134 11.042 -79.0459
rradius 121.003
rwrist 19.8716
rhand 14.6625 -0.615828
rfingers 7.12502
rthumb 39.5339 -25.9808
lclavicle 4.49253e-014 -2.14687e-014
lhumerus 24.2534 -15.7207 73.7365
lradius 121.595
lwrist -10.2888
lhand 9.71466 34.0083
lfingers 7.12502
lthumb 34.8557 60.5979
rfemur -18.2777 -2.38882 11.3771
rtibia 40.8146
rfoot -21.5619 -14.2861
rtoes -10.6972
lfemur -15.6686 5.07093 -26.2715
ltibia 32.021
lfoot -17.3796 2.37595
ltoes -12.3246
3275
root 0.174589 17.5881 -1.00299 1.5811 4.45554 6.47598
lowerback 12.8881 4.45584 -1.13737
upperback 8.35052 5.78197 -0.617765
thorax 1.52994 2.88567 -0.657054
lowerneck 7.31816 -6.44289 -5.07928
upperneck -2.15221 -8.80346 6.03867
head -1.43158 -4.49815 3.10359
rclavicle -9.62118e-014 2.06736e-014
rhumerus 15.8544 10.7775 -79.2499
rradius 121.057
rwrist 20.0201
rhand 14.5775 -0.759693
rfingers 7.12502
rthumb 39.4538 -26.1482
lclavicle -9.62118e-014 2.06736e-014
lhumerus 24.1303 -15.7739 73.5977
lradius 121.609
lwrist -10.5568
lhand 9.89246 34.2296
lfingers 7.12502
lthumb 35.0243 60.78
rfemur -18.8749 -2.04679 11.2032
rtibia 41.0594
rfoot -21.493 -13.9007
rtoes -10.6238
lfemur -16.095 5.52436 -26.4572
ltibia 32.3926
lfoot -17.6278 2.62962
ltoes -12.4104
3276
root 0.208923 17.5763 -1.02898 1.61719 3.69813 6.525
lowerback 12.2707 4.44351 -1.3098
upperback 8.98165 5.77183 -0.391666
thorax 2.48942 2.86343 -0.244845
lowerneck 7.29437 -6.63331 -5.11718
upperneck -2.9226 -9.03747 6.13327
head -1.65871 -4.61766 3.17346
rclavicle 5.00937e-014 -1.11319e-014
rhumerus 16.8743 10.1688 -78.6527
rradius 121.013
rwrist 20.0068
rhand 14.4934 -0.756935
rfingers 7.12502
rthumb 39.3746 -26.1686
lclavicle 5.00937e-014 -1.11319e-014
lhumerus 25.2031 -15.6768 73.7949
lradius 121.401
lwrist -10.771
lhand 9.93452 33.9876
lfingers 7.12502
lthumb 35.0642 60.5287
rfemur -19.3459 -1.7538 11.0083
rtibia 41.2989
rfoot -21.4284 -13.5612
rtoes -10.8249
lfemur -16.4006 5.9376 -26.6533
ltibia 32.7408
lfoot -17.8635 2.92815
ltoes -12.6665
3277
root 0.242494 17.5673 -1.05488 1.62157 2.91054 6.4326
lowerback 12.5367 4.21924 -1.39314
upperback 9.03624 5.45594 -0.242244
thorax 2.38348 2.6951 -0.0313025
lowerneck 7.3071 -6.58466 -5.25178
upperneck -3.09664 -8.98249 6.11245
head -1.7169 -4.58825 3.19699
rclavicle 2.94201e-014 -1.35174e-014
rhumerus 17.3795 9.99327 -78.7692
rradius 121.016
rwrist 20.1149
rhand 15.2539 -0.664031
rfingers 7.12502
rthumb 40.0906 -25.8627
lclavicle 2.94201e-014 -1.35174e-014
lhumerus 25.5069 -15.3106 73.7743
lradius 121.167
lwrist -10.7842
lhand 9.89375 34.0308
lfingers 7.12502
lthumb 35.0256 60.5809
rfemur -19.8004 -1.33668 10.9858
rtibia 41.5223
rfoot -21.3301 -13.3245
rtoes -11.3129
lfemur -16.6811 6.32218 -26.6865
ltibia 33.0686
lfoot -17.9513 3.15796
ltoes -12.3428
3278
root 0.275352 17.5588 -1.08108 1.60465 2.07425 6.40385
lowerback 11.7942 4.16634 -2.14497
upperback 9.79371 5.34028 0.474881
thorax 3.45791 2.56394 1.22743
lowerneck 7.12223 -6.64868 -5.96416
upperneck -3.79663 -9.11668 6.02837
head -1.87835 -4.64025 3.31556
rclavicle -4.29375e-014 1.90833e-014
rhumerus 18.9588 9.57052 -77.7135
rradius 120.894
rwrist 20.1348
rhand 16.2937 -0.586395
rfingers 7.12502
rthumb 41.068 -25.4811
lclavicle -4.29375e-014 1.90833e-014
lhumerus 26.5829 -14.6937 74.5103
lradius 120.896
lwrist -11.0659
lhand 10.0967 34.1663
lfingers 7.12502
lthumb 35.218 60.6712
rfemur -20.2596 -0.889125 10.8957
rtibia 41.756
rfoot -21.2167 -13.0692
rtoes -11.637
lfemur -16.9176 6.71268 -26.7854
ltibia 33.3714
lfoot -18.0874 3.39737
ltoes -11.8444
3279
root 0.308507 17.5474 -1.10615 1.566 1.25351 6.40473
lowerback 13.1501 3.87138 -1.83087
upperback 9.17772 4.92821 0.0554681
thorax 2.14963 2.39886 0.536548
lowerneck 6.96637 -6.59854 -5.74828
upperneck -3.01099 -9.0297 6.26029
head -1.59644 -4.60662 3.31415
rclavicle -3.69739e-014 1.11319e-014
rhumerus 18.257 9.39931 -78.5653
rradius 120.842
rwrist 20.1186
rhand 16.2431 -0.628447
rfingers 7.12502
rthumb 41.0204 -25.5383
lclavicle -3.69739e-014 1.11319e-014
lhumerus 26.0157 -14.8545 73.9068
lradius 120.801
lwrist -11.1387
lhand 10.4918 34.281
lfingers 7.12502
lthumb 35.5926 60.6966
rfemur -20.6954 -0.542152 10.7647
rtibia 41.9992
rfoot -21.1198 -12.652
rtoes -11.6082
lfemur -17.131 7.07735 -26.9197
ltibia 33.698
lfoot -18.2896 3.77949
ltoes -12.0986
3280
root 0.346722 17.5348 -1.12628 1.54824 0.420568 6.48753
lowerback 13.0303 3.76432 -1.99225
upperback 9.50183 4.77446 0.132104
thorax 2.54414 2.3055 0.744658
lowerneck 6.82866 -6.7115 -5.49289
upperneck -3.4213 -9.15646 5.93466
head -1.72308 -4.66195 3.16955
rclavicle 4.53229e-014 -1.11319e-014
rhumerus 18.8217 8.86878 -78.2461
rradius 120.675
rwrist 19.9257
rhand 15.792 -0.783111
rfingers 7.12502
rthumb 40.5966 -25.8264
lclavicle 4.53229e-014 -1.11319e-014
lhumerus 27.0513 -14.8027 73.8401
lradius 120.355
lwrist -11.2047
lhand 10.87 34.2767
lfingers 7.12502
lthumb 35.951 60.6052
rfemur -21.153 -0.274721 10.52
rtibia 42.2736
rfoot -21.0356 -12.1938
rtoes -12.2763
lfemur -17.3553 7.41479 -27.1592
ltibia 34.0507
lfoot -18.5587 4.10497
ltoes -11.6744
3281
root 0.385096 17.5207 -1.14561 1.51059 -0.4479 6.51681
lowerback 12.9959 3.62918 -2.13907
upperback 9.77811 4.58143 0.217685
thorax 2.84598 2.19223 0.949539
lowerneck 6.73496 -6.70022 -5.30248
upperneck -3.77674 -9.12452 5.69475
head -1.84384 -4.64014 3.06422
rclavicle 2.74323e-014 -1.98785e-014
rhumerus 19.361 8.43296 -78.0225
rradius 120.621
rwrist 20.2045
rhand 15.5506 -1.33841
rfingers 7.12502
rthumb 40.3697 -26.4519
lclavicle 2.74323e-014 -1.98785e-014
lhumerus 28.238 -14.5415 73.6922
lradius 119.788
lwrist -11.0931
lhand 11.2983 34.3077
lfingers 7.12502
lthumb 36.3567 60.5358
rfemur -21.6026 0.11362 10.3465
rtibia 42.5565
rfoot -20.8914 -11.8473
rtoes -12.9579
lfemur -17.6126 7.83942 -27.3353
ltibia 34.4612
lfoot -18.8186 4.45324
ltoes -11.5971
3282
root 0.42245 17.5049 -1.16487 1.44602 -1.31611 6.51335
lowerback 13.1457 3.43188 -2.33025
upperback 9.93225 4.29384 0.33071
thorax 2.91913 2.03028 1.20085
lowerneck 6.83302 -6.58246 -5.47216
upperneck -4.08611 -8.98078 5.69841
head -1.96552 -4.56616 3.11074
rclavicle -3.33958e-014 1.19271e-014
rhumerus 19.7421 8.2447 -77.829
rradius 120.552
rwrist 20.7115
rhand 15.1433 -2.02288
rfingers 7.12502
rthumb 39.9865 -27.253
lclavicle -3.33958e-014 1.19271e-014
lhumerus 28.9534 -14.2688 73.6162
lradius 119.487
lwrist -11.122
lhand 11.4755 34.8595
lfingers 7.12502
lthumb 36.5244 61.0455
rfemur -22.0335 0.562877 10.2212
rtibia 42.8477
rfoot -20.7985 -11.5804
rtoes -13.2326
lfemur -17.8762 8.30382 -27.4626
ltibia 34.9096
lfoot -19.0867 4.80223
ltoes -11.8128
